<svg width="12" height="12" viewBox="0 0 12 12" fill="none" xmlns="http://www.w3.org/2000/svg">
<path fill-rule="evenodd" clip-rule="evenodd" d="M6.79569 0.030032C6.99338 0.101832 7.125 0.289671 7.125 0.499995V4.27777L11 4.27777C11.1942 4.27777 11.3708 4.39021 11.453 4.56615C11.5352 4.7421 11.5081 4.94971 11.3835 5.09864L5.75846 11.8209C5.62349 11.9822 5.402 12.0418 5.20431 11.97C5.00662 11.8982 4.875 11.7103 4.875 11.5V7.72222H0.999999C0.805806 7.72222 0.629178 7.60978 0.546989 7.43384C0.4648 7.25789 0.491917 7.05028 0.616538 6.90135L6.24154 0.179124C6.37651 0.017822 6.598 -0.0417683 6.79569 0.030032ZM2.07034 6.72222H5.375C5.50761 6.72222 5.63478 6.7749 5.72855 6.86866C5.82232 6.96243 5.875 7.08961 5.875 7.22222L5.875 10.1233L9.92965 5.27777L6.625 5.27777C6.34886 5.27777 6.125 5.05391 6.125 4.77777V1.87666L2.07034 6.72222Z" fill="#1242B0"/>
</svg>
