<svg width="17" height="18" viewBox="0 0 17 18" fill="none" xmlns="http://www.w3.org/2000/svg">
<path fill-rule="evenodd" clip-rule="evenodd" d="M7.26285 1.32428C7.65919 0.891907 8.34082 0.891909 8.73716 1.32427L13.8686 6.92219C14.0552 7.12575 14.0414 7.44203 13.8379 7.62863C13.6343 7.81523 13.318 7.80148 13.1314 7.59792L8 2L2.86858 7.59792C2.68198 7.80148 2.3657 7.81523 2.16214 7.62863C1.95858 7.44203 1.94483 7.12575 2.13143 6.92219L7.26285 1.32428ZM2.16214 10.8915C2.3657 10.7049 2.68198 10.7186 2.86858 10.9222L8 16.5201L13.1314 10.9222C13.318 10.7186 13.6343 10.7049 13.8379 10.8915C14.0414 11.0781 14.0552 11.3944 13.8686 11.5979L8.73716 17.1958C8.34082 17.6282 7.65919 17.6282 7.26285 17.1958L2.13143 11.5979C1.94483 11.3944 1.95858 11.0781 2.16214 10.8915Z" fill="#1242B0"/>
</svg>
