<svg width="18" height="18" viewBox="0 0 18 18" fill="none" xmlns="http://www.w3.org/2000/svg">
<path d="M9 0.999999C4.58392 0.999999 0.999999 4.58393 0.999999 9C0.999999 13.4161 4.58392 17 9 17C13.4161 17 17 13.4161 17 9C17 4.58393 13.4161 0.999999 9 0.999999ZM9 1.37209C13.215 1.37209 16.6279 4.78503 16.6279 9C16.6279 13.215 13.215 16.6279 9 16.6279C4.78502 16.6279 1.37209 13.215 1.37209 9C1.37209 4.78503 4.78502 1.37209 9 1.37209Z" fill="#1242B0"/>
<path fill-rule="evenodd" clip-rule="evenodd" d="M0.799999 9C0.799999 4.47347 4.47347 0.799999 9 0.799999C13.5265 0.799999 17.2 4.47347 17.2 9C17.2 13.5265 13.5265 17.2 9 17.2C4.47347 17.2 0.799999 13.5265 0.799999 9ZM16.4279 9C16.4279 4.89548 13.1045 1.57209 9 1.57209C4.89548 1.57209 1.57209 4.89548 1.57209 9C1.57209 13.1045 4.89548 16.4279 9 16.4279C13.1045 16.4279 16.4279 13.1045 16.4279 9ZM0.999999 9C0.999999 4.58393 4.58392 0.999999 9 0.999999C13.4161 0.999999 17 4.58393 17 9C17 13.4161 13.4161 17 9 17C4.58392 17 0.999999 13.4161 0.999999 9ZM16.6279 9C16.6279 4.78503 13.215 1.37209 9 1.37209C4.78502 1.37209 1.37209 4.78503 1.37209 9C1.37209 13.215 4.78502 16.6279 9 16.6279C13.215 16.6279 16.6279 13.215 16.6279 9Z" fill="#1242B0"/>
<path d="M8.625 12.1631C8.625 12.3686 8.79148 12.5352 8.99684 12.5352C9.20221 12.5352 9.36868 12.3686 9.36868 12.1631C9.36868 11.9576 9.20221 11.791 8.99684 11.791C8.79148 11.791 8.625 11.9576 8.625 12.1631Z" fill="#1242B0"/>
<path d="M8.81092 10.4886C8.81076 10.7013 8.90045 10.8 8.9978 10.8C9.09514 10.8 9.18276 10.7187 9.18276 10.4886V6C9.18276 6 9.14801 5.80065 8.9978 5.8C8.84722 5.79935 8.81092 6 8.81092 6C8.81092 6 8.81218 8.81161 8.81092 10.4886Z" fill="#1242B0"/>
<path fill-rule="evenodd" clip-rule="evenodd" d="M8.61092 6.00009L8.81092 6L8.61412 5.96439L8.61091 5.9821L8.61092 6.00009ZM9.18276 6C9.18276 6 9.14801 5.80065 8.9978 5.8C8.84722 5.79935 8.81092 6 8.81092 6C8.81092 6 8.81218 8.81161 8.81092 10.4886C8.81076 10.7013 8.90045 10.8 8.9978 10.8C9.09514 10.8 9.18276 10.7187 9.18276 10.4886V6ZM9.18276 6L9.37979 5.96565L9.38276 5.9827V10.4886C9.38276 10.6246 9.35762 10.7488 9.29107 10.8447C9.21812 10.9497 9.10933 11 8.99782 11C8.87418 11 8.76873 10.9349 8.70198 10.8359C8.63814 10.7412 8.61082 10.6201 8.61092 10.4885C8.61155 9.65008 8.61155 8.52799 8.61139 7.61547L8.61092 6.00009L8.81092 6C8.61412 5.96439 8.6141 5.96446 8.61412 5.96439L8.61435 5.96311L8.61465 5.96152L8.61548 5.9574L8.61806 5.9457C8.62022 5.9365 8.62336 5.92432 8.62771 5.91011C8.63618 5.88243 8.65037 5.84336 8.67317 5.80243C8.71633 5.72496 8.81677 5.59921 8.99866 5.6C9.17971 5.60079 9.27909 5.72614 9.32184 5.80383C9.34436 5.84477 9.35828 5.88378 9.36656 5.91141C9.37082 5.9256 9.37387 5.93776 9.37597 5.94695L9.37847 5.95864L9.37927 5.96276L9.37956 5.96436L9.37979 5.96565C9.3798 5.96572 9.37979 5.96565 9.18276 6ZM8.425 12.1631C8.425 12.4789 8.6809 12.7352 8.99684 12.7352C9.31279 12.7352 9.56869 12.4789 9.56869 12.1631C9.56869 11.8472 9.31279 11.591 8.99684 11.591C8.6809 11.591 8.425 11.8472 8.425 12.1631ZM8.99684 12.5352C8.79148 12.5352 8.625 12.3686 8.625 12.1631C8.625 11.9576 8.79148 11.791 8.99684 11.791C9.20221 11.791 9.36868 11.9576 9.36868 12.1631C9.36868 12.3686 9.20221 12.5352 8.99684 12.5352Z" fill="#1242B0"/>
</svg>
