<svg width="41" height="41" viewBox="0 0 41 41" fill="none" xmlns="http://www.w3.org/2000/svg">
<path fill-rule="evenodd" clip-rule="evenodd" d="M21 39C31.4934 39 40 30.4934 40 20C40 9.50659 31.4934 1 21 1C10.5066 1 2 9.50659 2 20C2 30.4934 10.5066 39 21 39ZM21 40C32.0457 40 41 31.0457 41 20C41 8.9543 32.0457 0 21 0C9.9543 0 1 8.9543 1 20C1 31.0457 9.9543 40 21 40Z" fill="#1242B0"/>
<path fill-rule="evenodd" clip-rule="evenodd" d="M20.9755 9.42252C21.5879 9.35432 22.2061 9.44163 22.7782 9.67605C23.3493 9.91005 23.856 10.2831 24.258 10.7612C24.4769 11.0181 24.5936 11.346 24.5929 11.6807C24.5931 11.8864 24.5496 12.0907 24.4643 12.2786L24.4603 12.2875L24.1045 13.0385L22.7319 16.0049C22.63 16.2248 22.4728 16.4167 22.273 16.5577C22.0733 16.6986 21.8389 16.7833 21.5934 16.7999L21.5919 16.8L20.2673 16.894C20.2524 16.895 20.2341 16.9008 20.2161 16.9151C20.1977 16.9297 20.1795 16.9533 20.1684 16.9859L20.1663 16.9921C19.3714 19.2498 19.3713 21.7352 20.1663 23.9929L20.1685 23.999C20.1795 24.0316 20.1977 24.0552 20.2161 24.0698C20.2341 24.0842 20.2518 24.0899 20.2667 24.0909L21.5919 24.185L21.5935 24.1851C21.839 24.2016 22.0733 24.2863 22.273 24.4272C22.4727 24.5682 22.6297 24.7597 22.7316 24.9794V24.9794L24.1034 27.9289L24.1051 27.9327L24.5179 28.8043V28.837C24.5727 28.9923 24.6004 29.1563 24.6 29.3212L24 29.3197L24.6 29.3175L24.6 29.3212C24.6004 29.6552 24.4837 29.9824 24.2651 30.2388L24.2668 30.2367L23.8073 29.8509L24.263 30.2413L24.2651 30.2388C23.8631 30.7169 23.3564 31.09 22.7853 31.324C22.2133 31.5584 21.595 31.6457 20.9826 31.5775L20.9695 31.576L20.711 31.5413L20.5875 31.5236C20.5908 31.524 20.5941 31.5244 20.5975 31.5248L20.6637 30.9284L20.5789 31.5224L20.5875 31.5236C20.5083 31.5145 20.4297 31.501 20.352 31.4833L20.3435 31.4814L20.153 31.4321L20.1457 31.43C18.7268 31.025 17.593 29.652 16.8033 27.8868C16.0009 26.0929 15.4918 23.7641 15.4004 21.2109L15.4 21.2002V19.7621L15.4004 19.7514C15.4918 17.1984 16.0008 14.8694 16.8026 13.0799C17.5909 11.3206 18.7249 9.95169 20.1469 9.56768L20.1531 9.566L20.3364 9.51864L20.3448 9.51671C20.4226 9.499 20.5012 9.48553 20.5803 9.47638L20.5718 9.47759L20.6566 10.0716L20.5903 9.47524C20.587 9.47561 20.5837 9.47599 20.5803 9.47638L20.709 9.45802L20.9755 9.42252ZM23.3504 29.1426L23.0171 28.4387L21.6433 25.485C21.6272 25.4503 21.6043 25.4241 21.581 25.4076C21.558 25.3913 21.5343 25.3838 21.5125 25.3823L21.5097 25.3821L20.1829 25.288C19.9207 25.2695 19.6722 25.1708 19.4685 25.0085C19.266 24.8472 19.1165 24.6309 19.0335 24.3887C18.1489 21.8747 18.1489 19.1102 19.0335 16.5962C19.1165 16.354 19.266 16.1377 19.4685 15.9764C19.6724 15.8141 19.9205 15.7153 20.1829 15.6969L21.5125 15.6026C21.5343 15.6012 21.558 15.5936 21.581 15.5773C21.6042 15.5609 21.6268 15.5355 21.6428 15.501L23.0188 12.5274L23.3729 11.7797C23.3858 11.7502 23.3929 11.7167 23.3929 11.6818L23.3929 11.6781C23.3931 11.622 23.3731 11.5728 23.3445 11.5394L23.3406 11.5349C23.0602 11.2009 22.7108 10.9453 22.3232 10.7864C21.9377 10.6285 21.5237 10.5699 21.1146 10.6145L20.8707 10.6471L20.732 10.6669L20.7228 10.6679C20.688 10.6718 20.6533 10.6775 20.6189 10.685L20.4568 10.727C19.5639 10.9696 18.6367 11.9212 17.8977 13.5706C17.1724 15.1893 16.6881 17.3566 16.6 19.7837V21.1778C16.6881 23.6047 17.1724 25.7731 17.8987 27.3967C18.6371 29.0474 19.5665 30.0133 20.4684 30.2742L20.6261 30.315C20.6604 30.3225 20.6951 30.3282 20.7299 30.3321L20.7392 30.3331L20.8753 30.3526L20.8805 30.3533L21.1217 30.3855C21.5309 30.4301 21.9449 30.3715 22.3303 30.2136C22.7179 30.0547 23.0674 29.7991 23.3478 29.4651L23.3516 29.4605C23.3802 29.4271 23.4002 29.378 23.4 29.3219L23.4 29.3182C23.4001 29.2821 23.3924 29.2475 23.3787 29.2172L23.3586 29.173L23.3504 29.1426ZM24.5929 11.6807L24.5929 11.6825L23.9929 11.6803L24.5929 11.6788L24.5929 11.6807Z" fill="#1242B0"/>
</svg>
