<svg width="10" height="12" viewBox="0 0 10 12" fill="none" xmlns="http://www.w3.org/2000/svg">
<path fill-rule="evenodd" clip-rule="evenodd" d="M8.375 5.44444H7.75H2.25H1.625C0.733411 5.44444 0 6.15992 0 7.05555V10.3889C0 11.2845 0.733412 12 1.625 12H8.375C9.26659 12 10 11.2845 10 10.3889V7.05555C10 6.15992 9.26659 5.44444 8.375 5.44444ZM1.625 6.44444C1.27395 6.44444 1 6.72388 1 7.05555V10.3889C1 10.7206 1.27395 11 1.625 11H8.375C8.72605 11 9 10.7206 9 10.3889V7.05555C9 6.72388 8.72605 6.44444 8.375 6.44444H1.625Z" fill="#1242B0"/>
<path d="M5.5 8.16666C5.5 7.89052 5.27614 7.66666 5 7.66666C4.72386 7.66666 4.5 7.89052 4.5 8.16666V9.27778C4.5 9.55392 4.72386 9.77778 5 9.77778C5.27614 9.77778 5.5 9.55392 5.5 9.27778V8.16666Z" fill="#1242B0"/>
<path d="M5 1C3.48709 1 2.25 2.21294 2.25 3.72222V5.44444L3.29335 5.44444V3.72222C3.29335 2.7769 4.07098 2 5.04335 2C6.01572 2 6.79335 2.7769 6.79335 3.72222V5.44444L7.75 5.44444V3.72222C7.75 2.21294 6.51291 1 5 1Z" fill="#1242B0"/>
</svg>
