<svg width="10" height="12" viewBox="0 0 10 12" fill="none" xmlns="http://www.w3.org/2000/svg">
<path fill-rule="evenodd" clip-rule="evenodd" d="M7.46876 2.56053C6.10324 1.14649 3.89676 1.14649 2.53124 2.56053C1.15625 3.98438 1.15625 6.29989 2.53124 7.72374L4.64085 9.90831C4.83734 10.1118 5.16262 10.1118 5.35929 9.90817L7.46876 7.72374C8.84375 6.29989 8.84375 3.98438 7.46876 2.56053ZM1.8119 1.86587C3.57058 0.0447084 6.42942 0.0447084 8.1881 1.86587C9.9373 3.67723 9.9373 6.60704 8.1881 8.4184L6.07863 10.6028C5.48899 11.2134 4.51133 11.2137 3.92151 10.603L1.8119 8.4184C0.0626992 6.60704 0.0626992 3.67723 1.8119 1.86587ZM5 4.15C4.43776 4.15 4 4.57027 4 5.14214C4 5.69886 4.42204 6.1 5 6.1C5.57796 6.1 6 5.69886 6 5.14214C6 4.57027 5.56224 4.15 5 4.15ZM3 5.14214C3 3.99827 3.90539 3.15 5 3.15C6.09461 3.15 7 3.99827 7 5.14214C7 6.30114 6.07889 7.1 5 7.1C3.92111 7.1 3 6.30114 3 5.14214Z" fill="#1242B0"/>
</svg>
