<svg width="12" height="12" viewBox="0 0 12 12" fill="none" xmlns="http://www.w3.org/2000/svg">
<path fill-rule="evenodd" clip-rule="evenodd" d="M3.28125 0.249998L3.625 0.249998C3.90114 0.249998 4.125 0.473856 4.125 0.749998C4.125 1.02614 3.90114 1.25 3.625 1.25H3.28125C2.76033 1.25 2.38657 1.42623 2.14301 1.67583C1.89647 1.92848 1.75 2.29056 1.75 2.71875L1.75 9.28125C1.75 9.70944 1.89647 10.0715 2.14301 10.3242C2.38657 10.5738 2.76033 10.75 3.28125 10.75H3.625C3.90114 10.75 4.125 10.9739 4.125 11.25C4.125 11.5261 3.90114 11.75 3.625 11.75H3.28125C2.52092 11.75 1.87905 11.4855 1.4273 11.0226C0.978532 10.5627 0.75 9.94037 0.75 9.28125L0.75 2.71875C0.75 2.05963 0.978532 1.43733 1.4273 0.977433C1.87905 0.514484 2.52092 0.249998 3.28125 0.249998ZM7.64645 3.02145C7.84171 2.82618 8.15829 2.82618 8.35355 3.02145L10.9786 5.64645C11.1738 5.84171 11.1738 6.15829 10.9786 6.35355L8.35355 8.97855C8.15829 9.17381 7.84171 9.17381 7.64645 8.97855C7.45118 8.78329 7.45118 8.46671 7.64645 8.27145L9.41789 6.5L3.75 6.5C3.47386 6.5 3.25 6.27614 3.25 6C3.25 5.72386 3.47386 5.5 3.75 5.5L9.41789 5.5L7.64645 3.72855C7.45118 3.53329 7.45118 3.21671 7.64645 3.02145Z" fill="#1242B0"/>
</svg>
