<svg width="10" height="12" viewBox="0 0 10 12" fill="none" xmlns="http://www.w3.org/2000/svg">
<path fill-rule="evenodd" clip-rule="evenodd" d="M2.25 3.22222C2.25 1.71294 3.48709 0.5 5 0.5C6.51291 0.5 7.75 1.71294 7.75 3.22222C7.75 3.49836 7.52614 3.72222 7.25 3.72222C6.97386 3.72222 6.75 3.49836 6.75 3.22222C6.75 2.2769 5.97237 1.5 5 1.5C4.02763 1.5 3.25 2.2769 3.25 3.22222V4.94444H8.375C9.26659 4.94444 10 5.65993 10 6.55556V9.88889C10 10.7845 9.26659 11.5 8.375 11.5H1.625C0.733412 11.5 0 10.7845 0 9.88889V6.55556C0 5.65993 0.733411 4.94444 1.625 4.94444H2.25V3.22222ZM1.625 5.94444C1.27395 5.94444 1 6.22389 1 6.55556V9.88889C1 10.2206 1.27395 10.5 1.625 10.5H8.375C8.72605 10.5 9 10.2206 9 9.88889V6.55556C9 6.22389 8.72605 5.94444 8.375 5.94444H1.625ZM5 7.16667C5.27614 7.16667 5.5 7.39052 5.5 7.66667V8.77778C5.5 9.05392 5.27614 9.27778 5 9.27778C4.72386 9.27778 4.5 9.05392 4.5 8.77778V7.66667C4.5 7.39052 4.72386 7.16667 5 7.16667Z" fill="#1242B0"/>
</svg>
