<svg width="16" height="16" viewBox="0 0 16 16" fill="none" xmlns="http://www.w3.org/2000/svg">
<path fill-rule="evenodd" clip-rule="evenodd" d="M8 16C12.4183 16 16 12.4183 16 8C16 3.58172 12.4183 0 8 0C3.58172 0 0 3.58172 0 8C0 12.4183 3.58172 16 8 16ZM7.9978 9.8C7.90045 9.80001 7.81076 9.70128 7.81092 9.48865C7.81218 7.81161 7.81092 5 7.81092 5C7.81092 5 7.84722 4.79935 7.9978 4.8C8.14801 4.80065 8.18276 5 8.18276 5V9.48865C8.18276 9.71875 8.09514 9.79999 7.9978 9.8ZM7.99684 11.5352C7.79148 11.5352 7.625 11.3686 7.625 11.1631C7.625 10.9576 7.79148 10.791 7.99684 10.791C8.20221 10.791 8.36869 10.9576 8.36869 11.1631C8.36869 11.3686 8.20221 11.5352 7.99684 11.5352Z" fill="#1242B0"/>
</svg>
